<?xml version="1.0" encoding="UTF-8"?>
<svg version="1.1" xmlns="http://www.w3.org/2000/svg" width="1024" height="1024">
<path d="M0 0 C337.92 0 675.84 0 1024 0 C1024 337.92 1024 675.84 1024 1024 C686.08 1024 348.16 1024 0 1024 C0 686.08 0 348.16 0 0 Z " fill="#FDFDFD" transform="translate(0,0)"/>
<path d="M0 0 C1.56612008 -0.0056215 3.13223596 -0.01253036 4.69834536 -0.02059597 C8.95411829 -0.03875845 13.20971277 -0.03857215 17.46551549 -0.03501284 C22.07454609 -0.03439589 26.68352181 -0.05100397 31.29252625 -0.06518555 C40.30582404 -0.09000335 49.31906295 -0.09834551 58.33239207 -0.10002268 C65.66874354 -0.10145338 73.00507576 -0.10764354 80.34142113 -0.11712456 C101.19372595 -0.14351954 122.04598464 -0.157387 142.89830629 -0.15513314 C144.02021162 -0.15501327 145.14211695 -0.1548934 146.29801941 -0.1547699 C147.42131323 -0.15464726 148.54460705 -0.15452461 149.70194008 -0.15439826 C167.88280161 -0.1531804 186.06347629 -0.18185676 204.24428383 -0.224185 C222.9635894 -0.26741889 241.68280413 -0.28798762 260.40216082 -0.28540367 C270.8908765 -0.28441248 281.37939643 -0.2924444 291.86806679 -0.32493782 C300.80271295 -0.35244185 309.73707469 -0.35862588 318.67174516 -0.33840955 C323.2180736 -0.32870671 327.76385844 -0.32809925 332.31013298 -0.3544693 C357.2060971 -0.48991164 381.81630023 0.52045732 404.79338074 11.40113831 C405.40117371 11.68183167 406.00896667 11.96252502 406.63517761 12.25172424 C422.93696939 19.82556555 436.5761009 29.23768948 449.79338074 41.40113831 C450.71119324 42.23516174 451.62900574 43.06918518 452.57463074 43.92848206 C471.88643018 62.29302552 483.02181929 86.44180264 490.16838074 111.71363831 C490.41934509 112.58391663 490.67030945 113.45419495 490.92887878 114.35084534 C494.13151093 126.24378465 493.94168146 138.50307904 493.92709351 150.73809814 C493.92896603 152.2461669 493.93126847 153.75423518 493.93395883 155.2623027 C493.94002871 159.37116174 493.93994897 163.48000029 493.93876445 167.58886278 C493.93855922 172.03414936 493.94409081 176.47942957 493.94882202 180.92471313 C493.95710255 189.6205635 493.95987568 198.31640708 493.9604344 207.01226106 C493.96091077 214.0855962 493.96297155 221.15892912 493.96613503 228.23226357 C493.97493431 248.31781223 493.97955551 268.40335556 493.97880455 288.48890617 C493.97874462 290.11064784 493.97874462 290.11064784 493.97868347 291.76515198 C493.97862215 293.38888983 493.97862215 293.38888983 493.97855959 295.04543046 C493.97815327 312.58260584 493.98772121 330.11975975 494.00182184 347.65692892 C494.01620972 365.69468686 494.0230907 383.73243434 494.02222806 401.77019817 C494.02189694 411.88468733 494.02460687 421.99915396 494.03540611 432.11363792 C494.04454289 440.72574483 494.04666037 449.33781899 494.03989669 457.94992866 C494.03664754 462.33697413 494.03651627 466.72395688 494.04524994 471.11099625 C494.12207403 512.25955543 494.12207403 512.25955543 489.73088074 529.27613831 C489.52245544 530.09292053 489.31403015 530.90970276 489.09928894 531.75123596 C479.46449886 567.10919323 454.56790043 599.42116528 423.06681824 618.01832581 C396.01130691 633.39392874 368.02761425 639.5636385 337.0342865 639.5415802 C335.56450551 639.54416921 334.09472522 639.54718384 332.62494588 639.5505836 C328.61243584 639.55859431 324.59994375 639.56043984 320.58742666 639.56118107 C316.24902976 639.56304209 311.91064195 639.57059471 307.57225037 639.57731628 C298.0964543 639.59085894 288.62066249 639.59691826 279.14485836 639.60132694 C273.21795755 639.60409684 267.29105835 639.60833558 261.36415863 639.61283112 C244.92590818 639.62501956 228.48765901 639.635319 212.04940414 639.63870621 C210.99867158 639.63892577 209.94793901 639.63914534 208.86536606 639.63937156 C207.81223934 639.63958984 206.75911263 639.63980811 205.67407298 639.64003301 C203.54033963 639.64047646 201.40660628 639.64092302 199.27287292 639.64137268 C197.68529328 639.64170483 197.68529328 639.64170483 196.06564131 639.64204368 C178.93909729 639.64598664 161.81259594 639.66342722 144.68606839 639.6867322 C127.06532403 639.71051432 109.44460103 639.72291121 91.82384038 639.72407413 C81.9455681 639.72498716 72.06735141 639.73064488 62.18909454 639.74889374 C53.77286996 639.76438779 45.35671815 639.76936093 36.94048199 639.76115564 C32.65608757 639.75728147 28.37183927 639.75801773 24.08746338 639.77221298 C-22.19072615 639.91634858 -64.96464743 632.54402493 -99.08161926 598.65113831 C-100.45916938 597.23695122 -101.83453642 595.82063051 -103.20661926 594.40113831 C-104.07286926 593.55551331 -104.93911926 592.70988831 -105.83161926 591.83863831 C-124.1632323 573.0246144 -136.97401189 548.15535496 -142.20661926 522.40113831 C-142.37583818 521.58052373 -142.5450571 520.75990915 -142.71940386 519.91442746 C-144.28974871 511.53059623 -144.4937154 503.30943914 -144.4740448 494.81393433 C-144.47778849 493.266343 -144.48239285 491.71875357 -144.48777544 490.17116708 C-144.49993308 485.94812929 -144.49975356 481.72517116 -144.49738669 477.5021199 C-144.49697666 472.93533557 -144.50803574 468.36857615 -144.51750183 463.80180359 C-144.53407541 454.86349786 -144.53960982 445.92521851 -144.54072659 436.9868987 C-144.54167924 429.71241463 -144.54580037 422.4379392 -144.55212784 415.16345787 C-144.56973397 394.49874462 -144.57896824 373.83405209 -144.57746689 353.16933129 C-144.57738698 352.05658688 -144.57730707 350.94384247 -144.57722473 349.79737854 C-144.57714297 348.68326055 -144.57706121 347.56914256 -144.57697697 346.42126342 C-144.5761653 328.39403737 -144.59527461 310.36689512 -144.62350146 292.33969329 C-144.65231489 273.79003317 -144.66603697 255.24041379 -144.66431391 236.69073075 C-144.6636527 226.29260766 -144.66902588 215.8945723 -144.69067001 205.4964695 C-144.70899397 196.6371085 -144.71313839 187.77787495 -144.69965117 178.91850308 C-144.69317622 174.40901497 -144.69280244 169.89977053 -144.71035767 165.39030647 C-144.88528411 117.36561577 -135.32120014 77.68536196 -101.20661926 42.40113831 C-100.59302551 41.73598206 -99.97943176 41.07082581 -99.34724426 40.38551331 C-84.07762158 24.20878432 -62.72467863 12.94102929 -41.76911926 6.15113831 C-41.0553009 5.91693176 -40.34148254 5.68272522 -39.60603333 5.44142151 C-26.51834021 1.40542238 -13.63297604 -0.04727488 0 0 Z " fill="#19B5E9" transform="translate(337.2066192626953,192.59886169433594)"/>
<path d="M0 0 C1.52197998 0.01885254 1.52197998 0.01885254 3.07470703 0.03808594 C23.38863443 0.38863443 23.38863443 0.38863443 30 7 C35.32287795 17.64575589 30.84844471 31.49251847 28.6875 42.5 C28.06189586 45.73872696 27.44202858 48.97852793 26.82421875 52.21875 C26.67009018 53.02315521 26.51596161 53.82756042 26.35716248 54.65634155 C25.12110464 61.17951609 24.06368256 67.72282729 23.05142212 74.28396606 C22.01211816 81.00524316 20.82465974 87.69188734 19.5625 94.375 C19.24599487 96.07293701 19.24599487 96.07293701 18.9230957 97.80517578 C17.8997659 103.28062478 16.85751409 108.75192708 15.7890625 114.21875 C15.6027124 115.1773291 15.4163623 116.1359082 15.22436523 117.12353516 C14.87670344 118.90532163 14.52491691 120.68631028 14.16821289 122.46630859 C14.01344482 123.25859863 13.85867676 124.05088867 13.69921875 124.8671875 C13.56346436 125.54894043 13.42770996 126.23069336 13.2878418 126.93310547 C12.95707404 129.30823679 12.95331016 131.60499393 13 134 C13.44279297 133.55197021 13.88558594 133.10394043 14.34179688 132.64233398 C16.39176683 130.57129904 18.44585433 128.50439303 20.5 126.4375 C21.19609375 125.73302734 21.8921875 125.02855469 22.609375 124.30273438 C25.85357471 121.04351523 29.10565658 117.86208369 32.61328125 114.88671875 C39.32724191 109.10346333 45.44637216 102.65715225 51.6875 96.375 C53.00562426 95.05184907 54.3239819 93.72893059 55.64257812 92.40625 C58.06223573 89.97848318 60.4805463 87.54939252 62.8972168 85.11865234 C63.42300827 84.59017197 63.94879974 84.06169159 64.49052429 83.51719666 C65.91974131 82.08066921 67.34855457 80.64374009 68.77734375 79.20678711 C70.89060865 77.10861032 73.06869212 75.14435554 75.3125 73.1875 C80.80048501 68.29192117 85.96352744 63.09544223 91.11450195 57.84838867 C94.28176913 54.64000355 97.47691888 51.53892004 100.8984375 48.6015625 C105.68142383 44.48071027 110.07378668 39.99726008 114.5 35.5 C119.59967814 30.31846506 124.70173135 25.24385191 130.25439453 20.54516602 C132.07599657 18.93272975 133.72269715 17.22166834 135.375 15.4375 C148.04860548 2.64920125 164.17807952 0.9095393 181.23983765 0.80975342 C182.66770246 0.80489638 184.09556934 0.8006198 185.5234375 0.796875 C186.632227 0.79263393 186.632227 0.79263393 187.76341629 0.78830719 C191.69254143 0.77338041 195.62163062 0.7641157 199.55078125 0.75976562 C202.73481981 0.75542321 205.91858093 0.74168882 209.10253906 0.71875 C262.44233867 0.34233066 262.44233867 0.34233066 274 6 C275.06225586 8.33642578 275.06225586 8.33642578 275 11 C273.40454102 13.29248047 273.40454102 13.29248047 271.00390625 15.6171875 C270.13443359 16.47183594 269.26496094 17.32648438 268.36914062 18.20703125 C267.44294922 19.08746094 266.51675781 19.96789062 265.5625 20.875 C264.67111328 21.74769531 263.77972656 22.62039063 262.86132812 23.51953125 C258.28900168 27.9681005 253.61482467 32.25660188 248.78491211 36.42236328 C246.06426326 38.82707301 243.53343173 41.40112272 241 44 C237.08746404 47.96663765 233.10438804 51.74585151 228.859375 55.359375 C226.10641965 57.78845325 223.57096018 60.42013596 220.99609375 63.03515625 C219.07892823 64.92230744 217.10424678 66.68685375 215.0625 68.4375 C212.07198284 71.00665271 209.26883316 73.69317256 206.5 76.5 C203.79196435 79.24500542 201.05830751 81.8727091 198.125 84.375 C194.24195637 87.70111307 190.66732282 91.30286531 187.08007812 94.93945312 C183.75493746 98.29241923 180.31439225 101.43832422 176.71875 104.49609375 C175.1013418 105.91132592 173.61112625 107.38657173 172.125 108.9375 C170 111 170 111 168 111 C167.67 111.99 167.34 112.98 167 114 C165.43359375 115.578125 165.43359375 115.578125 163.4375 117.25 C162.71820312 117.86101562 161.99890625 118.47203125 161.2578125 119.1015625 C160.51273438 119.72804688 159.76765625 120.35453125 159 121 C157.60080311 122.20443688 156.20484758 123.41265172 154.8125 124.625 C153.89404297 125.41777344 153.89404297 125.41777344 152.95703125 126.2265625 C150.06474587 128.84751572 147.34791594 131.6348485 144.60620117 134.41162109 C139.2126019 139.87022555 133.84151151 145.25099644 127.9921875 150.2265625 C125.56062019 152.39113418 123.28788919 154.68429453 121 157 C118.14476317 159.88989828 115.28499804 162.68451745 112.1875 165.3125 C107.81461093 169.04675213 103.83088298 173.14247456 99.79125977 177.22827148 C96.81994757 180.2203833 93.82456971 183.12361904 90.625 185.875 C90.01914062 186.39835938 89.41328125 186.92171875 88.7890625 187.4609375 C87.51755256 188.55476919 86.24096361 189.64270898 84.9609375 190.7265625 C84.31382812 191.31179688 83.66671875 191.89703125 83 192.5 C82.4225 193.0053125 81.845 193.510625 81.25 194.03125 C79.18139621 197.28930097 79.34958119 199.21043412 80 203 C82.13483432 206.11873438 84.74405418 208.67387653 87.4375 211.3125 C88.92649188 212.82872954 90.41477902 214.34565151 91.90234375 215.86328125 C92.61890137 216.58338379 93.33545898 217.30348633 94.07373047 218.04541016 C96.29397184 220.29829386 98.411203 222.62506642 100.5 225 C106.49373148 231.7230068 112.72124813 238.23012842 118.90380859 244.77880859 C134.90156465 261.73054218 134.90156465 261.73054218 140.4375 267.9375 C146.45835464 274.68130904 152.70688062 281.21455957 158.91259766 287.78759766 C162.21793168 291.29086513 165.51674559 294.80022071 168.8125 298.3125 C169.43141113 298.97193604 170.05032227 299.63137207 170.68798828 300.31079102 C174.48891658 304.36758026 178.25606655 308.45311375 182 312.5625 C185.375793 316.26288848 188.81580411 319.85264593 192.390625 323.359375 C194.79744624 325.81293063 197.0074228 328.4282586 199.25 331.03125 C200.93798286 332.93023071 202.68769734 334.72005988 204.5 336.5 C206.93389732 338.89053167 209.21355559 341.35046262 211.4375 343.9375 C214.46956012 347.45794565 217.6943274 350.71468877 221.00390625 353.97265625 C223.67807367 356.6886893 226.16930457 359.54331352 228.65234375 362.43359375 C229.40849619 363.31248398 230.18017851 364.18017851 231 365 C231.04080783 366.99958364 231.04254356 369.00045254 231 371 C226.29468809 373.64733966 221.65761071 373.71282347 216.35546875 374.11328125 C215.26268112 374.19757889 214.16989349 374.28187653 213.04399109 374.36872864 C198.87596122 375.35068229 184.69744769 375.26196477 170.5043335 375.19561768 C167.55972237 375.18471201 164.61515721 375.18515231 161.67052937 375.18575573 C158.77995039 375.18548129 155.88940011 375.17995947 152.9988308 375.17275429 C151.00177222 375.16814417 149.00470781 375.16631535 147.00764465 375.16459656 C129.30462304 375.07348584 112.86018152 374.91576276 99.64550781 361.63916016 C93.47328738 355.2818138 87.75736008 348.58768674 82.2109375 341.6796875 C79.8906505 338.86746685 77.46928866 336.18202737 75 333.5 C71.72581577 329.94329756 68.59357567 326.32838189 65.5625 322.5625 C61.90428985 318.02683557 58.05257035 313.7429883 54.08618164 309.48071289 C50.30509442 305.39338994 46.80310034 301.11956756 43.3125 296.78125 C40.8002899 293.75980812 38.17599173 290.87558227 35.5 288 C31.23081848 283.41239887 27.24241483 278.66557272 23.3125 273.78125 C20.80028374 270.75980072 18.17591016 267.87566706 15.5 265 C10.41297457 259.53058463 5.69071612 253.81320266 1 248 C-2.48808668 243.39468735 -2.48808668 243.39468735 -7 240 C-7.04390869 240.61278809 -7.08781738 241.22557617 -7.13305664 241.85693359 C-7.7477027 249.49420803 -8.85967292 257.02384027 -10.10180664 264.58007812 C-10.43801581 266.62814211 -10.76727323 268.67723818 -11.09570312 270.7265625 C-12.09023339 276.87378556 -13.1593406 282.9734446 -14.57299805 289.0390625 C-15.30305588 292.39173517 -15.72552873 295.79010191 -16.1875 299.1875 C-17.57195866 308.75431825 -19.21288546 318.27512306 -20.92324829 327.78823853 C-21.22016813 329.44734307 -21.51323355 331.10714289 -21.80209351 332.76766968 C-27.00560105 362.59219229 -27.00560105 362.59219229 -36 371 C-45.39023957 377.26015972 -61.12952673 375.30859202 -72.03100586 375.26074219 C-74.92908712 375.25003109 -77.82654695 375.26068907 -80.72460938 375.2734375 C-109.68471611 375.30188888 -109.68471611 375.30188888 -118 369 C-123.64458624 362.57685014 -122.40959036 354.05116451 -122 346 C-121.46052299 340.87019389 -120.62865374 335.81704289 -119.734375 330.73828125 C-119.49625148 329.33190398 -119.25923847 327.9253383 -119.02325439 326.51860046 C-118.40520122 322.85376834 -117.77128052 319.19185989 -117.13397217 315.53033447 C-116.62514938 312.59135917 -116.12766908 309.65051944 -115.63076115 306.70950985 C-113.31538059 293.00629517 -110.91964522 279.32250748 -108.27006531 265.67932129 C-107.02627789 259.24658829 -105.99114601 252.79837639 -105.0625 246.3125 C-103.58045579 236.33484652 -101.80382242 226.44365161 -99.85791016 216.546875 C-97.91321091 206.6455008 -96.17237253 196.71587154 -94.47509766 186.76953125 C-94.01454233 184.08477295 -93.54609862 181.40153901 -93.07421875 178.71875 C-91.15877669 167.81913842 -89.31472833 156.90903714 -87.50665283 145.99121094 C-85.31372559 132.75438929 -83.07333767 119.52709643 -80.75 106.3125 C-80.56295502 105.24290543 -80.56295502 105.24290543 -80.37213135 104.15170288 C-79.19878727 97.45059369 -77.99765856 90.7710505 -76.46923828 84.14038086 C-75.5240593 79.82904678 -74.80804444 75.47444047 -74.0625 71.125 C-73.88775146 70.11832275 -73.71300293 69.11164551 -73.53295898 68.07446289 C-72.59536289 62.63142336 -71.71510717 57.18467075 -70.90429688 51.72143555 C-69.72723091 43.85611263 -68.26899382 36.08090609 -66.5625 28.3125 C-66.36922119 27.40363037 -66.17594238 26.49476074 -65.97680664 25.55834961 C-64.30175343 18.18305407 -62.11840007 11.17411656 -56.1875 6.125 C-55.56230469 5.57070313 -54.93710937 5.01640625 -54.29296875 4.4453125 C-40.45226042 -4.2788137 -15.57209007 -0.20059976 0 0 Z " fill="#FAFCFD" transform="translate(428,320)"/>
<path d="M0 0 C1.06412109 -0.01611328 2.12824219 -0.03222656 3.22460938 -0.04882812 C13.43931085 -0.0550604 22.39425287 2.38769044 31.6875 6.5 C32.36683594 6.79970703 33.04617188 7.09941406 33.74609375 7.40820312 C40.00275101 10.27633051 45.36679774 13.94813311 50.6875 18.3125 C51.41453125 18.87710937 52.1415625 19.44171875 52.890625 20.0234375 C64.40303703 29.38276484 72.79481367 44.61634735 74.6875 59.3125 C74.904319 62.87605973 74.97820109 66.43027249 75 70 C75.00845947 71.31859009 75.00845947 71.31859009 75.01708984 72.66381836 C74.84990768 87.73996618 69.65701399 101.934954 59.6875 113.3125 C58.62690227 114.31399011 57.55322543 115.30176032 56.46875 116.27734375 C55.91646729 116.78386475 55.36418457 117.29038574 54.79516602 117.81225586 C53.7111622 118.78597365 52.60018852 119.73076328 51.46069336 120.63891602 C49.0146207 122.81906871 47.77765534 124.28791874 47.48461914 127.61816406 C47.71054186 130.56630607 48.15893263 133.40302079 48.6875 136.3125 C48.87642822 137.46427734 49.06535645 138.61605469 49.26000977 139.80273438 C50.10900858 144.85318884 51.03457948 149.88866589 51.95898438 154.92578125 C52.18005859 156.16199219 52.40113281 157.39820313 52.62890625 158.671875 C52.83201416 159.78014648 53.03512207 160.88841797 53.24438477 162.03027344 C53.71218154 165.49532017 53.76239704 168.82025294 53.6875 172.3125 C51.51953125 173.04296875 51.51953125 173.04296875 48.6875 173.3125 C46.13671875 171.86328125 46.13671875 171.86328125 43.375 169.625 C42.31438388 168.78572257 41.25315314 167.94722146 40.19140625 167.109375 C39.62695801 166.65626953 39.06250977 166.20316406 38.48095703 165.73632812 C34.63295983 162.68139759 30.69296701 159.74048071 26.7175293 156.85375977 C23.49323758 154.50020428 20.47271286 152.18239582 17.6796875 149.32421875 C10.22534926 142.16647221 3.04433696 141.66207342 -7.03500366 141.82351685 C-11.26369058 141.92465808 -15.4909831 142.06465595 -19.71827698 142.21217346 C-39.80206055 142.81423933 -59.7308143 134.04604994 -74.37890625 120.4375 C-86.32760127 107.30600487 -93.11482104 92.57689372 -93.7734375 74.734375 C-92.59501181 68.5426468 -87.63626482 64.48386283 -83.125 60.5 C-81.9595376 59.44946764 -80.79548148 58.39737312 -79.6328125 57.34375 C-79.06594727 56.83070313 -78.49908203 56.31765625 -77.91503906 55.7890625 C-75.70985132 53.75722589 -73.60164371 51.63825771 -71.5 49.5 C-68.95695297 46.92023027 -66.38722693 44.46764816 -63.625 42.125 C-59.64690675 38.72090017 -55.99249412 35.031236 -52.3125 31.3125 C-48.0838183 27.03934682 -43.83611479 22.90255188 -39.23828125 19.0234375 C-36.79377672 16.85164645 -34.53611431 14.52502618 -32.25 12.1875 C-22.19569199 2.08714172 -14.02836805 -0.04202627 0 0 Z " fill="#F9FCFD" transform="translate(639.3125,436.6875)"/>
<path d="M0 0 C0.33 0 0.66 0 1 0 C1.15466347 4.25324544 1.11011671 8.00067048 0.08203125 12.13671875 C-1.09133105 17.18165745 -1.77126641 22.24251643 -2.4375 27.375 C-3.43711189 34.7614897 -4.65526633 41.89928173 -7 49 C-7.33 49 -7.66 49 -8 49 C-7.9278125 47.72382812 -7.855625 46.44765625 -7.78125 45.1328125 C-7.68747083 43.46354331 -7.59372243 41.79427238 -7.5 40.125 C-7.45230469 39.28324219 -7.40460938 38.44148437 -7.35546875 37.57421875 C-7.31035156 36.76855469 -7.26523437 35.96289062 -7.21875 35.1328125 C-7.17685547 34.38918457 -7.13496094 33.64555664 -7.09179688 32.87939453 C-7.0286929 31.58744125 -7 30.29349349 -7 29 C-6.34 29 -5.68 29 -5 29 C-4.80664062 27.74445312 -4.61328125 26.48890625 -4.4140625 25.1953125 C-3.10469842 16.75896605 -1.7800708 8.35263993 0 0 Z " fill="#1688E4" transform="translate(326,541)"/>
<path d="M0 0 C0 3 0 3 -2.63037109 5.97094727 C-3.83705618 7.17715612 -5.05202861 8.37510906 -6.2734375 9.56640625 C-6.91237946 10.20110336 -7.55132141 10.83580048 -8.20962524 11.48973083 C-10.25783185 13.52111865 -12.31620104 15.54185361 -14.375 17.5625 C-15.75589123 18.92834638 -17.13610831 20.29487471 -18.515625 21.66210938 C-21.55705241 24.67400049 -24.6049154 27.67920276 -27.65853882 30.6787262 C-28.77738649 31.78073656 -29.88953907 32.88953907 -31 34 C-30.68909376 28.60427232 -27.6407101 26.13904001 -23.9375 22.625 C-23.34549805 22.0484668 -22.75349609 21.47193359 -22.14355469 20.87792969 C-18.50712567 17.36066274 -14.78018886 13.97219012 -10.921875 10.69921875 C-7.10171857 7.32164142 -3.56685644 3.64116595 0 0 Z " fill="#1AA1DD" transform="translate(538,486)"/>
<path d="M0 0 C0 3 0 3 -1.15820312 4.51464844 C-1.69380859 5.0409082 -2.22941406 5.56716797 -2.78125 6.109375 C-3.37252686 6.69638184 -3.96380371 7.28338867 -4.57299805 7.88818359 C-5.20890869 8.50258301 -5.84481934 9.11698242 -6.5 9.75 C-7.45869995 10.68900146 -7.45869995 10.68900146 -8.43676758 11.64697266 C-21.11927327 24 -21.11927327 24 -25 24 C-11.96030138 10.78140307 -11.96030138 10.78140307 -5.58984375 5.3671875 C-3.62342114 3.67616069 -1.79556567 1.87038091 0 0 Z " fill="#23B0DA" transform="translate(640,390)"/>
<path d="M0 0 C0 3 0 3 -1.29760742 4.65405273 C-1.89420166 5.24130127 -2.4907959 5.8285498 -3.10546875 6.43359375 C-3.75966797 7.08263672 -4.41386719 7.73167969 -5.08789062 8.40039062 C-6.12719727 9.40875977 -6.12719727 9.40875977 -7.1875 10.4375 C-7.86103516 11.10587891 -8.53457031 11.77425781 -9.22851562 12.46289062 C-12.67423095 15.85481917 -16.14235472 19.07118582 -20 22 C-20.66 21.67 -21.32 21.34 -22 21 C-16.72305334 15.62573261 -11.41779833 10.37267954 -5.6953125 5.47265625 C-3.69997138 3.73937606 -1.83007366 1.90632672 0 0 Z " fill="#28B6DA" transform="translate(693,340)"/>
<path d="M0 0 C0.33 0 0.66 0 1 0 C1.05449838 1.72880982 1.09301688 3.45812712 1.125 5.1875 C1.14820313 6.15042969 1.17140625 7.11335937 1.1953125 8.10546875 C0.98744894 11.18600669 0.20527159 13.17622084 -1 16 C-1.57805624 18.26184389 -2.11856671 20.53355021 -2.625 22.8125 C-2.88539063 23.97394531 -3.14578125 25.13539063 -3.4140625 26.33203125 C-3.60742188 27.21246094 -3.80078125 28.09289062 -4 29 C-4.33 29 -4.66 29 -5 29 C-4.59397651 22.39161763 -3.71823655 15.93867325 -2.5 9.4375 C-2.30410278 8.38369141 -2.30410278 8.38369141 -2.10424805 7.30859375 C-1.13184952 2.26369903 -1.13184952 2.26369903 0 0 Z " fill="#1794E3" transform="translate(407,646)"/>
<path d="M0 0 C0 3 0 3 -2.59765625 5.92578125 C-3.74433853 7.06308234 -4.89980009 8.19157943 -6.0625 9.3125 C-6.65506592 9.89410889 -7.24763184 10.47571777 -7.8581543 11.07495117 C-11.76995118 14.88816284 -15.76157899 18.55012243 -20 22 C-20.66 21.67 -21.32 21.34 -22 21 C-17.09070833 15.98843142 -12.121763 11.14297265 -6.796875 6.57421875 C-4.41401353 4.48662489 -2.20473601 2.27363401 0 0 Z " fill="#22ADDA" transform="translate(606,422)"/>
<path d="M0 0 C0.99 0.33 1.98 0.66 3 1 C3.33 1.99 3.66 2.98 4 4 C3.01 4.495 3.01 4.495 2 5 C1.37400757 8.38035912 1 11.56169885 1 15 C0.36893571 17.01151741 -0.29373761 19.01363702 -1 21 C-1.33 21 -1.66 21 -2 21 C-2.28307925 13.75002578 -1.50974035 7.09038772 0 0 Z " fill="#279CE2" transform="translate(421,560)"/>
<path d="M0 0 C0 3 0 3 -1.53125 4.68359375 C-2.84245737 5.85171301 -4.15495643 7.01838398 -5.46875 8.18359375 C-7.42969381 10.11375954 -7.42969381 10.11375954 -7 14 C-6.7018576 15.34164079 -6.37756808 16.67851173 -6 18 C-6.66 18 -7.32 18 -8 18 C-8.33 18.99 -8.66 19.98 -9 21 C-10.05489019 17.1995052 -10.55641324 13.92443672 -10 10 C-7.13769828 6.08180398 -3.76010499 3.04641196 0 0 Z " fill="#26B5CD" transform="translate(696,552)"/>
<path d="M0 0 C0.33 0 0.66 0 1 0 C1.25515919 7.52719602 0.28297723 14.58851545 -1 22 C-1.66 22 -2.32 22 -3 22 C-3.33 20.02 -3.66 18.04 -4 16 C-3.34 16 -2.68 16 -2 16 C-2.02320313 15.34773437 -2.04640625 14.69546875 -2.0703125 14.0234375 C-2.17583753 8.91301097 -2.01926302 4.79574967 0 0 Z " fill="#0B80E0" transform="translate(317,591)"/>
<path d="M0 0 C0.33 0 0.66 0 1 0 C2.40454548 6.11980533 3.23268915 11.71739294 3 18 C2.34 17.67 1.68 17.34 1 17 C0.49610519 14.31256099 0.11290811 11.71065924 -0.1875 9 C-0.28224609 8.24976563 -0.37699219 7.49953125 -0.47460938 6.7265625 C-0.69967546 4.82295012 -0.85538687 2.91140835 -1 1 C-0.67 0.67 -0.34 0.34 0 0 Z " fill="#26BDD1" transform="translate(689,574)"/>
<path d="M0 0 C0.99 0.495 0.99 0.495 2 1 C3.55830626 7.09156084 2.78597414 11.42805172 0 17 C0 11.39 0 5.78 0 0 Z " fill="#08A1EA" transform="translate(460,331)"/>
<path d="M0 0 C0.66 0 1.32 0 2 0 C2.28571429 7.42857143 2.28571429 7.42857143 0 11 C-0.84098656 6.98195309 -1.05404945 3.98196457 0 0 Z " fill="#3BA9EE" transform="translate(356,368)"/>
<path d="M0 0 C0.99 0.33 1.98 0.66 3 1 C3.33 1.99 3.66 2.98 4 4 C3.01 4.495 3.01 4.495 2 5 C1.34444881 7.52733235 1.34444881 7.52733235 1 10 C0.67 10 0.34 10 0 10 C0 6.7 0 3.4 0 0 Z " fill="#1B8ADC" transform="translate(421,560)"/>
<path d="M0 0 C2.1387261 3.20808915 2.47730962 4.27698497 2 8 C1.01 8.66 0.02 9.32 -1 10 C-0.67 6.7 -0.34 3.4 0 0 Z " fill="#37ACEA" transform="translate(441,445)"/>
<path d="M0 0 C2 3 2 3 1.75 5 C1 7 1 7 -1 10 C-1.125 3.375 -1.125 3.375 0 0 Z " fill="#0E9EE4" transform="translate(453,383)"/>
</svg>
